<svg aria-hidden="true" style="position:absolute;width:0;height:0;overflow:hidden" xmlns="http://www.w3.org/2000/svg"><defs><symbol id="icon-envelope-1" viewBox="0 0 64 64"><path fill="#757575" style="fill:var(--color1, #757575)" d="M58 8H6c-3.308 0-6 2.692-6 6v36c0 3.308 2.692 6 6 6h52c3.308 0 6-2.692 6-6V14c0-3.308-2.692-6-6-6zm0 4c.272 0 .532.056.768.156L32 35.356l-26.768-23.2c.227-.098.491-.155.768-.156h52zm0 40H6a2 2 0 0 1-2-2V16.38l26.688 23.132c.349.305.809.49 1.312.49s.963-.186 1.314-.492l-.002.002L60 16.38V50a2 2 0 0 1-2 2z"/></symbol><symbol id="icon-smartphone-1" viewBox="0 0 64 64"><path fill="#757575" style="fill:var(--color1, #757575)" d="M46 0H18c-3.308 0-6 2.692-6 6v52c0 3.308 2.692 6 6 6h28c3.308 0 6-2.692 6-6V6c0-3.308-2.692-6-6-6zM18 4h28a2 2 0 0 1 2 2v42H16V6a2 2 0 0 1 2-2zm28 56H18a2 2 0 0 1-2-2v-6h32v6a2 2 0 0 1-2 2z"/><path fill="#757575" style="fill:var(--color1, #757575)" d="M21.416 54.956a1.778 1.778 0 0 1 .002 2.639l-.002.001c-.372.341-.87.549-1.416.549s-1.044-.209-1.418-.551l.002.001a1.778 1.778 0 0 1-.002-2.639l.002-.001c.372-.341.87-.549 1.416-.549s1.044.209 1.418.551l-.002-.001z"/></symbol><symbol id="icon-astronaut-1-1" viewBox="0 0 64 64"><path fill="#2196f3" style="fill:var(--color2, #2196f3)" d="M63.948 9.048a1.07 1.07 0 0 0-.854-.724l-.006-.001-3.822-.556-1.71-3.462c-.358-.73-1.554-.73-1.912 0l-1.71 3.462-3.822.556a1.068 1.068 0 0 0-.593 1.819l2.767 2.696-.653 3.805c-.069.4.096.805.423 1.044.332.24.765.271 1.125.08l3.418-1.797 3.418 1.797a1.068 1.068 0 0 0 1.547-1.131l.001.006-.653-3.805 2.766-2.696a1.064 1.064 0 0 0 .268-1.102l.002.008zm-4.925 2.655a1.065 1.065 0 0 0-.306.944l.381 2.228-2-1.051a1.066 1.066 0 0 0-1 .003l.006-.003-2 1.051.381-2.228a1.065 1.065 0 0 0-.305-.944l-1.621-1.579 2.238-.325a1.07 1.07 0 0 0 .804-.584l1-2.026 1 2.026c.155.315.455.534.804.584l2.238.325-1.618 1.579zm-6.756 29.341h-2.133v2.134h2.133v-2.134zm0 4.268h-2.133v2.132h2.133v-2.132zm2.133-2.134h-2.133v2.133H54.4v-2.133zm-4.266 0H48v2.133h2.134v-2.133zm-5.334 9.6h-2.133v2.133H44.8v-2.133zm0 4.267h-2.133v2.133H44.8v-2.133zm2.134-2.133H44.8v2.133h2.134v-2.134zm-4.267 0h-2.134v2.133h2.134v-2.134zM32 48.512h-2.133v2.133H32v-2.134zm0 4.266h-2.133v2.133H32v-2.133zm2.133-2.134H32v2.134h2.133v-2.134zm-4.266 0h-2.134v2.134h2.134v-2.134zm-18.134-38.4H9.6v2.133h2.133v-2.133zm0 4.267H9.6v2.133h2.133v-2.132zm2.133-2.134h-2.133v2.134h2.133v-2.134zm-4.266 0H7.466v2.134H9.6v-2.134z"/><path fill="#212121" style="fill:var(--color3, #212121)" d="M49.429 28.319a3.552 3.552 0 0 0-2.358-1.407l-.019-.002a3.538 3.538 0 0 0-2.687.71l.008-.006-2.506 1.919-3.795 2.834-2.715-1.082c4.842-2.172 8.227-7.016 8.227-12.64 0-7.646-6.245-13.867-13.922-13.867s-13.923 6.221-13.923 13.867c0 2.771.829 5.349 2.24 7.517l-5.537-.048c-.017 0-.031.009-.047.009a1.064 1.064 0 0 0-.318.065l.007-.002c-.026.009-.052.015-.077.026-.013.006-.026.006-.038.013l-6.466 3.192c-.001 0-.003 0-.003.002l-3.786 1.82a.87.87 0 0 0-.129.072l.003-.002a3.56 3.56 0 0 0-1.186 4.612l-.009-.02a3.568 3.568 0 0 0 2.087 1.77l.025.007c.321.105.691.166 1.075.166.616 0 1.196-.157 1.701-.432l-.019.009 2.776-1.476 4.528-2.339 2.714-.016L4.396 44.421c0 .002-.002.002-.003.003L1.716 47.09a3.287 3.287 0 0 0-.981 2.347v.01-.001a3.334 3.334 0 0 0 3.334 3.328h.005c.856 0 1.709-.325 2.361-.971l2.629-2.618 3.482-2.599 1.801 1.794-6.203 6.177a3.287 3.287 0 0 0-.981 2.347v.009c0 .89.347 1.727.981 2.358.603.599 1.434.97 2.352.97h.007c.855 0 1.71-.324 2.361-.97l8.976-8.944c.014-.013.032-.017.045-.031L32.216 38.98l6.942.987c.05.007.101.011.151.011.128 0 .253-.031.375-.077.035-.013.065-.03.099-.047.038-.019.079-.03.115-.055l6.426-4.266c.024-.016.037-.042.059-.059.026-.02.058-.028.081-.051l2.542-2.382a3.55 3.55 0 0 0 1.128-2.599c0-.8-.264-1.539-.71-2.133l.007.009zM4.261 35.54a1.41 1.41 0 0 1-1.126.1l.01.003a1.434 1.434 0 0 1-1.007-1.367c0-.471.227-.889.578-1.149l.004-.003 2.628-1.264.633 1.849.265.777-1.984 1.054zm6.994-3.655-3.097 1.6-.51-1.493-.368-1.073 4.054-2.001-.08 2.968zm30.199-13.241c0 1.837-.439 3.569-1.198 5.119l-8.363-3.799a3.722 3.722 0 0 0-1.565-2.767l-.012-.008 2.928-9.722c4.754 1.513 8.208 5.949 8.208 11.176zm-23.578 0c0-6.47 5.288-11.734 11.789-11.734.506 0 1 .043 1.49.105l-2.864 9.506c-.038 0-.074-.012-.114-.012h-.002a3.743 3.743 0 0 0-3.743 3.733 3.744 3.744 0 0 0 3.744 3.733h.001c1.39 0 2.589-.766 3.237-1.889l7.726 3.509c-2.15 2.894-5.59 4.78-9.474 4.78-6.501 0-11.789-5.264-11.789-11.733zm11.913 1.6c0 .882-.724 1.6-1.613 1.6h-.003a1.608 1.608 0 0 1-1.608-1.6c0-.882.722-1.6 1.611-1.6s1.612.718 1.612 1.6zM4.929 50.292c-.22.218-.522.352-.856.352s-.635-.134-.854-.35a1.185 1.185 0 0 1 0-1.688l1.925-1.917 1.704 1.696-1.917 1.909zm6.427 7.467a1.213 1.213 0 0 1-1.71.002 1.185 1.185 0 0 1 0-1.688l1.925-1.918 1.703 1.695-1.919 1.911zm6.964-6.937-.003.003-3.529 3.52-1.704-1.695 3.53-3.514c.08-.08.13-.176.179-.272.014-.027.04-.051.052-.08.033-.082.038-.171.051-.257.006-.049.027-.095.027-.146 0-.07-.026-.14-.04-.21-.013-.064-.013-.129-.038-.191a1.048 1.048 0 0 0-.184-.276l.001.001c-.02-.024-.027-.053-.049-.076h-.002s0-.003-.002-.005l-3.214-3.2c-.034-.034-.078-.048-.116-.077a1.023 1.023 0 0 0-.168-.112l-.005-.003a.974.974 0 0 0-.18-.063l-.007-.001a1 1 0 0 0-.203-.04h-.004l-.046-.001c-.051 0-.102.004-.151.011l.006-.001a1.078 1.078 0 0 0-.208.041c-.068.021-.127.055-.188.09-.04.022-.085.03-.122.058l-3.547 2.648-1.801-1.795 4.798-4.773 8.72 8.578-1.855 1.838zm13.638-14.034c-.031-.005-.06.007-.091.005l-.053-.001a.997.997 0 0 0-.183.016l.006-.001a.964.964 0 0 0-.373.14l.004-.002a1.08 1.08 0 0 0-.166.123c-.026.022-.057.033-.08.059l-9.395 10.291-8.656-8.513 5.666-5.637a1.068 1.068 0 0 0-.756-1.822h-.003l-4.438.026.056-3.215 6.208.053a13.86 13.86 0 0 0 9.957 4.202h.007c.875 0 1.728-.091 2.559-.245.08.064.159.128.259.169l4.82 1.92.304 1.517.357 1.771-6.006-.855zm8.082.357-.626-3.116 2.893-2.16 1.893 2.513-4.16 2.763zm7.507-5.662-1.675 1.57-1.862-2.472 1.662-1.274a1.466 1.466 0 0 1 1.086-.286A1.438 1.438 0 0 1 48 30.441c0 .411-.174.782-.452 1.042l-.001.001z"/><path fill="#212121" style="fill:var(--color3, #212121)" d="m27.205 37.088-4.286-4.267a1.064 1.064 0 0 0-1.505 0l-4.285 4.267a1.068 1.068 0 0 0 0 1.512l4.284 4.267a1.064 1.064 0 0 0 1.506 0l4.286-4.267a1.064 1.064 0 0 0 0-1.512zm-5.038 3.518-2.774-2.761 2.773-2.762 2.775 2.761-2.775 2.761zm12.162-30.465-.516 2.072c.143.036 3.475.903 3.475 4.297h2.134c0-4.034-3.332-5.93-5.093-6.369zm5.093 8.503h-2.134v2.133h2.134v-2.133z"/></symbol><symbol id="icon-diagram-1-1" viewBox="0 0 64 64"><path fill="#2196f3" style="fill:var(--color2, #2196f3)" d="M29.851 29.929h2.132v9.595h-2.132v-9.595zm8.529 4.265h2.132v5.33H38.38v-5.33zm-17.058 3.198h2.132v2.132h-2.132v-2.132zm-6.396-1.067h2.132v3.198h-2.132v-3.198z"/><path fill="#212121" style="fill:var(--color3, #212121)" d="M3.198 56.581h51.174a3.198 3.198 0 0 0 3.198-3.198v-4.264a3.198 3.198 0 0 0-3.198-3.198h-1.066V19.334l6.055-5.736a3.216 3.216 0 1 0-1.484-1.505l-.008-.02-4.562 4.325v-2.459a3.198 3.198 0 0 0-3.198-3.198H7.464a3.198 3.198 0 0 0-3.198 3.198v31.984H3.2a3.198 3.198 0 0 0-3.198 3.198v4.264A3.198 3.198 0 0 0 3.2 56.583zm57.57-46.908a1.066 1.066 0 1 1 0 2.132 1.066 1.066 0 1 1 0-2.132zM6.396 13.937c0-.589.477-1.066 1.066-1.066h42.645c.589 0 1.066.477 1.066 1.066v4.477l-2.132 2.026v-4.37c0-.59-.478-1.067-1.067-1.067H9.595c-.589 0-1.067.477-1.067 1.066v26.653c0 .589.478 1.066 1.067 1.066h38.379c.59 0 1.067-.477 1.067-1.066V23.373l2.132-2.021v24.567H6.396V13.937zm9.596 13.86h-.009a3.198 3.198 0 1 0 2.225 5.496l-.001.001 3.706 1.86c.431.215.953.114 1.273-.245l7.878-8.863 7.744 5.803c.416.311.996.278 1.372-.079l6.73-6.375v16.262H10.663V17.136H46.91v5.321L39.367 29.6l-7.808-5.854a1.068 1.068 0 0 0-1.437.142l-.001.001-7.985 8.986-2.985-1.493c.021-.128.035-.257.04-.387a3.198 3.198 0 0 0-3.198-3.198zm1.066 3.198a1.066 1.066 0 1 1-2.132 0 1.066 1.066 0 1 1 2.132 0zm6.396 17.058h10.661v1.066c0 .589-.476 1.066-1.065 1.066h-8.529a1.066 1.066 0 0 1-1.066-1.066v-1.066zM2.133 49.119c0-.589.476-1.066 1.065-1.066h18.124v1.066a3.198 3.198 0 0 0 3.198 3.198h8.529a3.198 3.198 0 0 0 3.198-3.198v-1.066h18.124c.589 0 1.066.477 1.066 1.066v4.264c0 .589-.477 1.066-1.066 1.066H3.197a1.066 1.066 0 0 1-1.066-1.066v-4.264z"/></symbol><symbol id="icon-clock-1-1" viewBox="0 0 64 64"><path fill="#212121" style="fill:var(--color3, #212121)" d="M62.593 30.602C62.59 13.698 48.883-.004 31.977 0S1.371 13.711 1.375 30.616c.004 13.575 8.844 25.085 21.082 29.09l.216.061c.122.038.247.058.375.058.24 0 .476-.065.684-.187.271-.16.472-.414.567-.713l7.729-24.5a3.826 3.826 0 1 0-1.701-7.258l.022-.01-10.212-10.213a1.275 1.275 0 0 0-1.802 1.804l10.206 10.218a3.706 3.706 0 0 0-.383 1.651c0 1.203.566 2.274 1.447 2.961l.008.006-7.365 23.346C7.693 51.568.239 35.421 5.601 20.866S27.109-1.143 41.665 4.22C56.22 9.581 63.674 25.728 58.311 40.283c-2.69 7.163-8.006 12.812-14.748 15.876l-.176.072-.795-3.749a1.277 1.277 0 0 0-2.098-.686l.001-.001-7.674 6.852a1.276 1.276 0 0 0 .452 2.166l.009.002 9.797 3.127a1.275 1.275 0 0 0 1.636-1.489l.002.008-.782-3.677c11.055-4.749 18.657-15.543 18.657-28.113v-.069.004zm-30.609-1.274a1.275 1.275 0 0 1 0 2.55 1.275 1.275 0 0 1 0-2.55zm4.201 29.728 4.368-3.897 1.206 5.68-5.574-1.784z"/><path fill="#2196f3" style="fill:var(--color2, #2196f3)" d="M30.709 6.37v2.551a1.275 1.275 0 0 0 2.55 0V6.37a1.275 1.275 0 0 0-2.55 0zM7.752 29.328a1.275 1.275 0 0 0 0 2.55h2.551a1.275 1.275 0 0 0 0-2.55H7.752zm48.465 2.55a1.275 1.275 0 0 0 0-2.55h-2.551a1.275 1.275 0 0 0 0 2.55h2.551z"/></symbol><symbol id="icon-antenna-1-1" viewBox="0 0 64 64"><path fill="#212121" style="fill:var(--color3, #212121)" d="m61.546 44.196-16.887-17.01 1.874-9.232c.45.181.971.288 1.516.292h.066a4.318 4.318 0 1 0-4.059-2.841l-.01-.03-9.92 1.211L17.945.32a1.06 1.06 0 0 0-.753-.32c-.28.002-.549.113-.747.311l-3.024 3.008a1.063 1.063 0 0 0 0 1.508l1.627 1.65c-2.286 4.125-3.631 9.044-3.631 14.278 0 8.211 3.312 15.649 8.672 21.05l-.002-.002c.086.082.185.147.293.195a5.972 5.972 0 0 0-.104 1.092v12.376h-12.8a5.34 5.34 0 0 0-5.335 5.333v2.133c0 .59.478 1.067 1.067 1.067h49.067c.589 0 1.066-.477 1.066-1.067v-2.133a5.34 5.34 0 0 0-5.333-5.333h-12.8v-5.484c2.005.421 4.048.635 6.097.64a29.57 29.57 0 0 0 14.234-3.644l-.154.078 1.637 1.646c.197.202.469.317.752.32.28-.002.549-.113.747-.311l3.024-3.008a1.063 1.063 0 0 0 0-1.508zM46.56 12.466a2.133 2.133 0 1 1 1.504 3.645h-.007a2.133 2.133 0 0 1-1.493-3.645h-.004zm-2.512 7.008-1.197 5.892-2.351-2.365 3.547-3.526zm-1.211-1.804-3.84 3.818-2.971-2.987 6.811-.831zm5.171 39.93a3.2 3.2 0 0 1 3.2 3.2v1.067H4.275V60.8a3.2 3.2 0 0 1 3.2-3.2h40.533zm-14.933-4.267v2.134H22.408v-2.134h10.667zM22.408 51.2v-8.107c0-2.587 2.393-4.693 5.333-4.693s5.334 2.106 5.334 4.693V51.2H22.408zm12.8-3.392v-4.715c0-3.764-3.349-6.826-7.467-6.826l-.117-.001a7.594 7.594 0 0 0-6.427 3.542l-.018.031a27.633 27.633 0 0 1-7.623-19.1c0-4.628 1.133-8.992 3.138-12.828l-.073.153 37.204 37.417c-3.645 1.894-7.959 3.004-12.532 3.004-2.157 0-4.257-.247-6.272-.715l.186.036zm22.578-1.368L15.672 4.078l1.509-1.504 15.87 15.96c.007 0 .012.014.019.019l26.229 26.383-1.513 1.504z"/><path fill="#2196f3" style="fill:var(--color2, #2196f3)" d="M27.751 40.533H27.737a3.2 3.2 0 0 0-.005 6.4H27.746a3.2 3.2 0 0 0 .005-6.4zm.746 3.957a1.067 1.067 0 1 1-.756-1.823 1.066 1.066 0 0 1 .747 1.822h.009z"/></symbol><symbol id="icon-instagram-2-1" viewBox="0 0 64 64"><path d="M63.936 18.816c-.147-3.402-.698-5.738-1.485-7.763a15.69 15.69 0 0 0-3.7-5.674l-.003-.003a15.773 15.773 0 0 0-5.556-3.653l-.108-.037C51.046.899 48.722.352 45.321.201c-3.424-.163-4.512-.202-13.203-.202-8.688 0-9.776.038-13.19.189-3.398.147-5.738.698-7.76 1.485a15.68 15.68 0 0 0-5.677 3.7l-.003.003a15.779 15.779 0 0 0-3.65 5.556l-.037.108c-.79 2.038-1.338 4.362-1.488 7.763C.15 22.227.111 23.315.111 32.006c0 8.688.038 9.776.189 13.19.15 3.402.701 5.738 1.488 7.763a15.87 15.87 0 0 0 3.697 5.675l.002.002a15.738 15.738 0 0 0 5.664 3.686c2.038.79 4.365 1.341 7.763 1.488 3.414.15 4.502.189 13.19.189 8.691 0 9.779-.038 13.19-.189 3.402-.147 5.738-.698 7.763-1.485 4.315-1.7 7.666-5.052 9.328-9.255l.039-.111c.787-2.038 1.338-4.365 1.488-7.763.15-3.414.186-4.502.186-13.19s-.013-9.776-.16-13.19zm-5.76 26.131c-.141 3.126-.666 4.813-1.101 5.939-1.104 2.799-3.28 4.972-6.008 6.049l-.072.025c-1.12.438-2.822.963-5.936 1.101-3.376.15-4.387.189-12.928.189-8.538 0-9.565-.038-12.928-.189-3.126-.138-4.813-.662-5.939-1.101a9.892 9.892 0 0 1-3.671-2.385l-.002-.002a9.97 9.97 0 0 1-2.368-3.605L7.2 50.9c-.435-1.126-.96-2.826-1.098-5.939-.15-3.376-.189-4.39-.189-12.928 0-8.541.038-9.568.189-12.928.138-3.126.662-4.813 1.098-5.939a9.772 9.772 0 0 1 2.397-3.674l.003-.003a9.947 9.947 0 0 1 3.612-2.365l.068-.023c1.12-.438 2.822-.96 5.936-1.101 3.376-.147 4.39-.186 12.928-.186 8.55 0 9.565.038 12.928.186 3.126.138 4.813.662 5.939 1.101a9.842 9.842 0 0 1 3.674 2.387 9.989 9.989 0 0 1 2.39 3.68c.435 1.12.96 2.822 1.098 5.936.15 3.376.189 4.387.189 12.928 0 8.538-.038 9.536-.189 12.915z"/><path d="M32.118 15.565c-9.078.004-16.437 7.363-16.438 16.441.182 8.942 7.473 16.12 16.442 16.12s16.26-7.179 16.441-16.103v-.017c-.002-9.08-7.362-16.44-16.441-16.442zm0 27.104c-5.89-.001-10.664-4.776-10.664-10.666s4.775-10.666 10.666-10.666h.002c5.891 0 10.667 4.776 10.667 10.667s-4.776 10.667-10.667 10.667zM53.05 14.915a3.84 3.84 0 1 1-7.68 0 3.84 3.84 0 1 1 7.68 0z"/></symbol><symbol id="icon-twitter-1-1" viewBox="0 0 64 64"><path d="M64 12.157c-2.2.987-4.752 1.714-7.426 2.056l-.136.014c2.72-1.633 4.764-4.156 5.747-7.159l.026-.092c-2.395 1.445-5.182 2.546-8.152 3.146l-.168.028a13.085 13.085 0 0 0-9.574-4.151c-7.244 0-13.117 5.873-13.117 13.117v.008c0 1.04.086 2.042.304 2.992-10.909-.531-20.56-5.76-27.043-13.722a13.059 13.059 0 0 0-1.805 6.625v.002c0 4.544 2.342 8.573 5.827 10.902a12.91 12.91 0 0 1-5.988-1.646l.065.034v.144c.006 6.33 4.473 11.615 10.426 12.881l.086.015c-.997.273-2.143.429-3.325.429l-.122-.001h.006c-.838 0-1.686-.048-2.483-.224 1.699 5.197 6.522 9.018 12.259 9.139-4.43 3.491-10.091 5.6-16.245 5.6h-.025.001-.124c-1.063 0-2.11-.068-3.137-.199l.122.013c5.653 3.692 12.574 5.888 20.008 5.888h.127-.007c24.144 0 37.344-20 37.344-37.338 0-.576-.019-1.139-.048-1.696a26.408 26.408 0 0 0 6.517-6.709l.059-.094z"/></symbol><symbol id="icon-facebook-1-1" viewBox="0 0 64 64"><path d="M42.656 10.624h5.846V.448c-2.465-.286-5.321-.449-8.215-.449L39.974 0h.016c-8.426 0-14.198 5.299-14.198 15.04V24h-9.293v11.376h9.293V64H37.19V35.379h8.918l1.418-11.376H37.187V16.16c0-3.286.886-5.536 5.469-5.536z"/></symbol><symbol id="icon-linkedin-1-1" viewBox="0 0 64 64"><path d="M63.984 64H64V40.525c0-11.482-2.47-20.326-15.894-20.326-6.454 0-10.784 3.539-12.554 6.899h-.186v-5.827h-12.73v42.726H35.89V42.842c0-5.571 1.056-10.96 7.955-10.96 6.797 0 6.899 6.358 6.899 11.315V64h13.238zM1.056 21.27h13.27V64H1.056V21.27zM7.686 0A7.686 7.686 0 0 0 0 7.686c0 4.24 3.443 7.757 7.686 7.757 4.24 0 7.683-3.514 7.683-7.757A7.689 7.689 0 0 0 7.686 0z"/></symbol></defs></svg>